<svg width="320" height="560"><rect x="0" y="80" width="80" height="80" style="fill:rgb(249,242,238);stroke-width:3;stroke:rgb(0,0,0)"></rect>
<rect x="0" y="160" width="80" height="80" style="fill:rgb(202,198,195);stroke-width:3;stroke:rgb(0,0,0)"></rect>
<rect x="0" y="240" width="80" height="80" style="fill:rgb(161,157,154);stroke-width:3;stroke:rgb(0,0,0)"></rect>
<rect x="0" y="320" width="80" height="80" style="fill:rgb(122,118,116);stroke-width:3;stroke:rgb(0,0,0)"></rect>
<rect x="0" y="400" width="80" height="80" style="fill:rgb(80,80,78);stroke-width:3;stroke:rgb(0,0,0)"></rect>
<rect x="0" y="480" width="80" height="80" style="fill:rgb(43,41,43);stroke-width:3;stroke:rgb(0,0,0)"></rect>
<rect x="80" y="80" width="80" height="80" style="fill:rgb(0,127,159);stroke-width:3;stroke:rgb(0,0,0)"></rect>
<rect x="80" y="160" width="80" height="80" style="fill:rgb(192,75,145);stroke-width:3;stroke:rgb(0,0,0)"></rect>
<rect x="80" y="240" width="80" height="80" style="fill:rgb(245,205,0);stroke-width:3;stroke:rgb(0,0,0)"></rect>
<rect x="80" y="320" width="80" height="80" style="fill:rgb(186,26,51);stroke-width:3;stroke:rgb(0,0,0)"></rect>
<rect x="80" y="400" width="80" height="80" style="fill:rgb(57,146,64);stroke-width:3;stroke:rgb(0,0,0)"></rect>
<rect x="80" y="480" width="80" height="80" style="fill:rgb(25,55,135);stroke-width:3;stroke:rgb(0,0,0)"></rect>
<rect x="160" y="80" width="80" height="80" style="fill:rgb(222,118,32);stroke-width:3;stroke:rgb(0,0,0)"></rect>
<rect x="160" y="160" width="80" height="80" style="fill:rgb(99,86,96);stroke-width:3;stroke:rgb(0,0,0)"></rect>
<rect x="160" y="240" width="80" height="80" style="fill:rgb(195,79,95);stroke-width:3;stroke:rgb(0,0,0)"></rect>
<rect x="160" y="320" width="80" height="80" style="fill:rgb(83,58,106);stroke-width:3;stroke:rgb(0,0,0)"></rect>
<rect x="160" y="400" width="80" height="80" style="fill:rgb(157,188,54);stroke-width:3;stroke:rgb(0,0,0)"></rect>
<rect x="160" y="480" width="80" height="80" style="fill:rgb(236,158,25);stroke-width:3;stroke:rgb(0,0,0)"></rect>
<rect x="240" y="80" width="80" height="80" style="fill:rgb(98,187,166);stroke-width:3;stroke:rgb(0,0,0)"></rect>
<rect x="240" y="160" width="80" height="80" style="fill:rgb(126,125,174);stroke-width:3;stroke:rgb(0,0,0)"></rect>
<rect x="240" y="240" width="80" height="80" style="fill:rgb(82,106,60);stroke-width:3;stroke:rgb(0,0,0)"></rect>
<rect x="240" y="320" width="80" height="80" style="fill:rgb(87,120,155);stroke-width:3;stroke:rgb(0,0,0)"></rect>
<rect x="240" y="400" width="80" height="80" style="fill:rgb(197,145,125);stroke-width:3;stroke:rgb(0,0,0)"></rect>
<rect x="240" y="480" width="80" height="80" style="fill:rgb(112,76,60);stroke-width:3;stroke:rgb(0,0,0)"></rect>
</svg>